<svg role="img" viewBox="0 0 24 24" xmlns="http://www.w3.org/2000/svg"><title>Croda icon</title><path d="M.13 14.424a.13.13 0 000 .26h23.74a.13.13 0 000-.26zm21.475-4.11l.669 1.596h-1.338zm.06-.92a88.168 88.168 0 01-1.565 3.565c-.167.359-.185.389-.55.4l-.018.018v.17l.018.018c.215-.012.454-.03.687-.03.233 0 .472.018.687.03l.018-.017v-.17l-.018-.019c-.328-.017-.484-.023-.484-.167 0-.078.012-.167.377-.998h1.576c.34.837.4.98.4 1.07 0 .06-.011.096-.447.096l-.018.017v.17l.018.018c.257-.012.531-.03.806-.03s.55.018.807.03l.018-.017v-.17l-.018-.019c-.27-.006-.323-.041-.389-.155-.161-.274-.34-.705-1.654-3.81zm-5.595 3.84c-.012-.39-.024-.831-.024-1.793 0-.831.012-1.321.024-1.716.18-.03.346-.048.668-.048 1.07 0 1.679.634 1.679 1.71 0 1.237-.628 1.894-1.798 1.894-.22 0-.37-.006-.55-.048m-.351-3.81c-.286 0-.573-.018-.871-.03l-.018.018v.172l.018.017c.226 0 .406.03.46.077.065.06.083.114.083 1.5 0 1.955-.024 2.02-.042 2.074-.012.036-.053.066-.25.154l-.024.03v.112l.018.018c.208-.024.37-.03.513-.03.346 0 .668.03 1.128.03 1.695 0 2.388-1.234 2.388-2.238 0-1.398-.908-1.934-2.436-1.934-.358 0-.657.03-.967.03M10.19 11.23c0-.992.632-1.632 1.473-1.632.651 0 1.564.443 1.564 1.98 0 .968-.472 1.78-1.444 1.78-.901 0-1.593-.83-1.593-2.128m-.705.215c0 1.01.502 2.198 2.13 2.198 1.361 0 2.316-1.014 2.316-2.27 0-1.41-.961-2.059-2.166-2.059-1.283 0-2.28.792-2.28 2.131M5.713 9.423c-.286 0-.573-.018-.872-.03l-.017.018v.172l.017.017c.227 0 .407.03.46.077.066.06.084.114.084 1.5v.605c0 1.386-.018 1.44-.084 1.5-.053.048-.233.078-.46.078l-.017.017v.17l.017.018c.3-.012.586-.03.872-.03.286 0 .573.019.848.03l.018-.017v-.17l-.018-.018c-.203 0-.383-.03-.436-.078-.066-.06-.084-.114-.084-1.5 0-1.435.018-1.806.024-2.033.137-.042.34-.072.514-.072.568 0 .95.252.95.76 0 .478-.328.896-.962.896-.06 0-.114-.006-.18-.012l-.059.108c.472.603 1.01 1.428 1.474 2.136.16-.011.314-.03.475-.03.155 0 .317.019.454.03l.018-.017v-.17l-.018-.018c-.18 0-.251-.036-.394-.24L7.183 11.46c.495-.12 1.022-.472 1.022-1.172 0-.728-.58-.893-1.44-.893-.335 0-.694.029-1.052.029M.03 11.515c0 1.41 1.128 2.127 2.304 2.127a3.12 3.12 0 001.38-.3c.041-.114.083-.227.13-.34l-.071-.042c-.334.227-.776.322-1.128.322-1.284 0-1.91-.89-1.91-1.976 0-.824.495-1.707 1.611-1.707.531 0 .98.197 1.122.37.019.15.036.299.036.448l.018.018h.191l.018-.018c-.006-.15.03-.591.114-.842l-.036-.041a5.203 5.203 0 00-1.385-.219c-1.493 0-2.394.863-2.394 2.2"/></svg>